<?xml version="1.0" standalone="no"?>
<!DOCTYPE svg PUBLIC "-//W3C//DTD SVG 20010904//EN"
 "http://www.w3.org/TR/2001/REC-SVG-20010904/DTD/svg10.dtd">
<svg version="1.0" xmlns="http://www.w3.org/2000/svg"
 width="300.000000pt" height="300.000000pt" viewBox="0 0 300.000000 300.000000"
 preserveAspectRatio="xMidYMid meet">
<metadata>
Created by potrace 1.10, written by Peter Selinger 2001-2011
</metadata>
<g transform="translate(0.000000,300.000000) scale(0.100000,-0.100000)"
fill="#000000" stroke="none">
<path d="M0 1500 l0 -1500 1500 0 1500 0 0 1500 0 1500 -1500 0 -1500 0 0
-1500z m483 1356 c18 -14 97 -94 176 -178 l144 -153 -176 175 -177 175 -147
-148 -148 -147 129 -129 128 -129 -26 -43 c-28 -48 -35 -46 -10 2 8 17 14 34
12 40 -2 5 -56 63 -121 128 -66 66 -117 125 -115 130 3 11 289 301 295 301 3
0 19 -11 36 -24z m131 -168 l157 -162 -21 -20 -20 -20 -140 141 c-77 78 -140
145 -140 148 0 4 9 3 20 0 11 -4 20 -2 20 4 0 6 -6 11 -14 11 -7 0 -16 9 -19
21 -3 12 -10 18 -17 14 -8 -5 -8 -11 1 -21 17 -20 6 -26 -17 -10 -18 14 -18
15 0 35 11 12 22 21 26 21 4 0 78 -73 164 -162z m2126 155 c-8 -3 -25 -15 -37
-26 -13 -11 -23 -18 -23 -14 0 13 44 47 59 46 14 0 14 -1 1 -6z m85 -18 c14
-13 25 -29 25 -35 0 -6 -10 0 -22 14 -21 23 -27 24 -65 17 -24 -5 -40 -4 -37
0 3 5 20 9 37 10 27 0 29 2 12 9 -19 8 -19 9 3 9 13 1 34 -10 47 -24z m-35
-38 c0 -8 -4 -7 -12 1 -8 8 -15 9 -25 1 -9 -8 -13 -8 -13 -1 0 13 21 21 38 14
6 -2 12 -9 12 -15z m-2157 -399 c-48 -49 -90 -88 -93 -88 -3 0 -14 17 -25 38
-10 20 -28 51 -39 67 l-20 30 21 -18 c11 -10 28 -35 38 -57 10 -22 21 -40 26
-40 4 0 43 34 86 75 l78 74 -155 156 -155 155 -100 -100 -100 -100 105 -105
c58 -58 110 -105 117 -105 6 0 15 9 18 21 4 11 9 18 12 16 2 -3 -2 -18 -11
-35 l-15 -29 -120 120 -120 120 107 108 107 108 162 -162 163 -162 -87 -87z
m1567 387 c11 -13 10 -14 -4 -9 -9 3 -16 10 -16 15 0 13 6 11 20 -6z m497 -32
c-3 -10 -5 -2 -5 17 0 19 2 27 5 18 2 -10 2 -26 0 -35z m-536 -19 c-14 -23
-16 -34 -8 -35 25 -2 -159 -38 -193 -38 -19 1 10 9 65 19 102 20 119 30 132
77 3 13 9 20 15 17 5 -3 0 -21 -11 -40z m629 22 c0 -23 -16 -35 -38 -29 -20 5
-30 32 -17 45 9 9 55 -4 55 -16z m-113 -8 c-3 -8 -6 -5 -6 6 -1 11 2 17 5 13
3 -3 4 -12 1 -19z m-449 -24 c50 15 94 17 127 6 20 -7 35 -14 32 -16 -2 -2
-18 1 -35 7 -30 10 -64 7 -162 -18 -24 -6 -24 -6 -7 11 9 10 18 25 18 34 1 10
4 7 6 -6 3 -16 10 -21 21 -18z m614 12 c7 4 8 2 4 -5 -4 -6 -11 -9 -16 -6 -4
3 -14 -3 -21 -12 -12 -15 -12 -16 6 -9 14 5 17 4 9 -4 -6 -6 -18 -8 -26 -5
-14 5 -13 9 6 28 11 12 23 19 24 14 2 -4 9 -4 14 -1z m-947 -42 c14 -9 23 -19
21 -21 -7 -7 -71 33 -87 54 -15 19 -13 18 66 -33z m820 16 c0 -7 9 -16 20 -21
20 -8 20 -8 0 -8 -25 -1 -40 9 -48 31 -4 11 -1 15 11 14 9 -2 17 -9 17 -16z
m-844 -73 c8 -14 5 -19 -17 -27 -15 -6 -29 -8 -32 -5 -3 3 -1 5 4 5 5 0 15 4
23 9 11 7 9 15 -11 42 -14 19 -28 41 -32 49 -10 19 51 -49 65 -73z m-1518 53
c-10 -11 -19 -20 -21 -20 -1 0 2 9 8 20 6 11 15 20 20 20 6 0 2 -9 -7 -20z
m2310 3 c-7 -2 -19 -2 -25 0 -7 3 -2 5 12 5 14 0 19 -2 13 -5z m-283 -17 c-6
-8 -26 -20 -43 -25 -33 -11 -39 -12 -114 -26 -29 -5 -43 -13 -44 -24 -1 -13
-2 -13 -6 2 -3 13 -10 16 -26 11 -55 -17 -53 -17 -37 -4 12 9 9 10 -15 6 -22
-5 -26 -4 -15 4 8 5 29 7 45 4 17 -3 25 -2 19 3 -7 4 13 9 45 9 45 1 107 18
200 53 2 0 -2 -6 -9 -13z m430 4 c11 -7 6 -10 -20 -10 -26 0 -31 3 -20 10 8 5
17 10 20 10 3 0 12 -5 20 -10z m-2435 -21 c-10 -15 -25 -10 -19 6 4 8 10 12
15 9 5 -3 7 -10 4 -15z m1872 15 c-3 -3 -12 -4 -19 -1 -8 3 -5 6 6 6 11 1 17
-2 13 -5z m396 -1 c-7 -2 -21 -2 -30 0 -10 3 -4 5 12 5 17 0 24 -2 18 -5z
m-440 -10 c-7 -2 -19 -2 -25 0 -7 3 -2 5 12 5 14 0 19 -2 13 -5z m515 0 c-10
-2 -28 -2 -40 0 -13 2 -5 4 17 4 22 1 32 -1 23 -4z m149 1 c-3 -3 -12 -4 -19
-1 -8 3 -5 6 6 6 11 1 17 -2 13 -5z m-2546 -27 c-10 -9 -11 -8 -5 6 3 10 9 15
12 12 3 -3 0 -11 -7 -18z m1123 11 c4 6 14 8 22 5 31 -12 -9 -21 -116 -26 -90
-5 -96 -5 -40 3 87 13 98 15 107 23 3 4 10 2 14 -4 4 -8 8 -8 13 -1z m696 2
c-14 -4 -34 -8 -45 -8 -16 0 -15 2 5 8 14 4 34 8 45 8 16 0 15 -2 -5 -8z m457
-27 c-3 -10 -5 -4 -5 12 0 17 2 24 5 18 2 -7 2 -21 0 -30z m176 30 c-7 -2 -19
-2 -25 0 -7 3 -2 5 12 5 14 0 19 -2 13 -5z m-2328 -23 c5 -8 -43 -100 -51
-100 -3 0 0 9 6 19 16 30 13 46 -5 31 -8 -6 -20 -10 -26 -8 -6 2 7 12 30 22
22 11 41 23 41 28 0 11 -17 10 -41 -3 -18 -9 -19 -8 -10 9 10 20 45 21 56 2z
m2408 9 c-8 -8 -16 -8 -30 0 -16 9 -14 10 12 11 21 0 26 -3 18 -11z m-2491
-28 c-11 -20 -19 -26 -24 -18 -5 7 1 19 13 30 29 23 31 22 11 -12z m1701 22
c-7 -2 -19 -2 -25 0 -7 3 -2 5 12 5 14 0 19 -2 13 -5z m827 -13 c0 -11 -2 -20
-4 -20 -2 0 -6 9 -9 20 -3 11 -1 20 4 20 5 0 9 -9 9 -20z m-1387 -90 c3 -36 2
-56 -2 -45 -5 11 -11 49 -14 85 -3 36 -2 56 3 45 4 -11 10 -49 13 -85z m514
94 c-3 -3 -12 -4 -19 -1 -8 3 -5 6 6 6 11 1 17 -2 13 -5z m-697 -189 c30 0 84
3 120 7 41 5 59 4 49 -2 -8 -5 -58 -13 -110 -19 -122 -12 -126 -8 -133 109
l-5 85 12 -90 12 -90 55 0z m627 160 c17 -3 49 -2 69 4 21 6 39 9 40 8 4 -4
-190 -87 -201 -87 -6 0 15 12 45 27 l55 26 -33 10 c-26 8 -44 7 -80 -6 -68
-25 -76 -20 -12 7 30 13 62 23 70 21 8 -2 29 -6 47 -10z m696 8 c-7 -2 -19 -2
-25 0 -7 3 -2 5 12 5 14 0 19 -2 13 -5z m-2165 -17 c9 3 6 -1 -8 -9 -29 -18
-33 -16 -23 9 3 10 8 13 10 7 3 -7 12 -10 21 -7z m1608 5 c-9 -13 20 -21 57
-16 l32 5 -33 -10 c-21 -7 -38 -7 -50 -1 -13 7 -27 6 -45 -4 -15 -8 -27 -10
-27 -6 0 4 15 15 33 24 39 19 40 19 33 8z m525 -9 c-7 -2 -18 1 -23 6 -8 8 -4
9 13 5 13 -4 18 -8 10 -11z m106 12 c-3 -3 -12 -4 -19 -1 -8 3 -5 6 6 6 11 1
17 -2 13 -5z m-1727 -8 c0 -2 -7 -7 -16 -10 -8 -3 -12 -2 -9 4 6 10 25 14 25
6z m77 -20 c26 -22 27 -26 13 -50 -13 -25 -12 -29 21 -64 l34 -37 -43 40 c-53
49 -55 34 -2 -22 l40 -41 -35 -31 c-43 -37 -92 -64 -105 -56 -5 3 -19 24 -32
46 -20 36 -26 40 -53 35 l-30 -5 30 14 c29 13 30 12 53 -27 13 -22 26 -37 29
-34 9 9 -45 93 -78 120 -24 21 -29 29 -20 40 12 15 64 29 55 15 -2 -5 4 -17
16 -29 27 -27 13 -26 -16 1 -14 13 -29 19 -40 15 -14 -5 -12 -12 18 -41 19
-20 43 -51 54 -70 21 -40 24 -41 63 -21 55 29 57 41 17 91 -20 24 -42 58 -49
74 -9 22 -16 28 -27 21 -11 -7 -12 -13 -1 -36 11 -24 10 -26 -3 -14 -20 16
-20 44 -1 60 16 13 35 6 35 -13 0 -7 7 -23 16 -35 15 -22 17 -22 35 -6 24 22
24 41 0 54 -31 16 -38 11 -13 -8 21 -16 22 -20 8 -31 -12 -10 -16 -9 -25 7
-11 21 -11 62 1 62 4 0 19 -11 35 -24z m309 -51 c-9 -33 -14 -41 -15 -25 -1
31 21 110 26 90 1 -8 -3 -37 -11 -65z m1411 69 c-3 -3 -12 -4 -19 -1 -8 3 -5
6 6 6 11 1 17 -2 13 -5z m-1871 -25 c-14 -11 -26 -25 -26 -31 0 -6 -7 -20 -17
-30 -14 -15 -15 -24 -5 -55 6 -20 10 -39 7 -41 -2 -2 -9 14 -15 36 -11 34 -10
43 6 68 24 40 56 74 67 74 5 0 -2 -9 -17 -21z m1777 14 c-7 -2 -19 -2 -25 0
-7 3 -2 5 12 5 14 0 19 -2 13 -5z m-2201 -39 c-22 -16 -26 -11 -11 15 9 14 16
16 20 9 4 -7 0 -17 -9 -24z m828 11 c-11 -13 -10 -19 5 -35 21 -23 9 -26 -18
-6 -18 14 -18 16 -1 40 9 15 19 24 22 22 3 -3 -1 -12 -8 -21z m124 7 c15 -18
15 -20 -4 -37 -11 -10 -22 -16 -25 -13 -3 3 1 11 10 18 14 12 14 15 -1 31 -10
11 -13 19 -7 19 5 0 17 -8 27 -18z m1324 11 c-10 -2 -28 -2 -40 0 -13 2 -5 4
17 4 22 1 32 -1 23 -4z m-1828 -13 c0 -5 -10 -15 -22 -21 -23 -12 -23 -12 -4
10 21 23 26 26 26 11z m1070 5 c0 -3 -28 -19 -62 -35 -63 -30 -102 -37 -112
-21 -3 4 5 6 17 4 12 -2 51 9 87 26 74 34 70 33 70 26z m813 -2 c-7 -2 -19 -2
-25 0 -7 3 -2 5 12 5 14 0 19 -2 13 -5z m-2377 -35 c-9 -12 -16 -17 -16 -10 0
7 -6 10 -12 7 -7 -4 -2 2 12 13 30 25 37 21 16 -10z m72 -15 c-28 -49 -32 -53
-23 -25 6 21 5 23 -13 13 -12 -6 -27 -11 -34 -11 -9 0 49 39 89 59 1 1 -7 -16
-19 -36z m158 -102 c-82 -82 -116 -123 -111 -132 6 -11 5 -12 -6 -1 -11 10 7
33 106 132 66 66 122 120 125 120 2 0 -49 -54 -114 -119z m-122 83 c-34 -18
-36 -18 -23 5 8 11 19 16 31 13 16 -4 16 -6 -8 -18z m31 -23 c3 -6 -4 -15 -15
-21 -19 -10 -20 -10 -8 9 15 24 15 24 23 12z m-45 -21 c-6 -11 -16 -17 -22
-14 -7 5 -5 12 7 21 25 18 28 17 15 -7z m370 -24 c-12 -12 -30 8 -30 33 0 11
5 10 20 -4 15 -13 17 -22 10 -29z m-319 4 c-22 -19 -41 -26 -41 -15 0 5 51 34
60 34 3 0 -6 -9 -19 -19z m1508 -3 c0 -9 -2 -9 -5 -1 -3 7 -15 10 -27 8 -21
-4 -21 -4 -2 5 23 10 35 5 34 -12z m-42 -46 c-7 -17 -16 -29 -19 -26 -3 4 1
20 9 36 20 39 27 31 10 -10z m-1554 -43 l37 -68 -28 0 c-21 0 -24 2 -12 10 13
8 12 14 -5 47 -27 49 -38 50 -58 8 -21 -45 -21 -52 1 -58 9 -3 3 -5 -14 -6
l-31 -1 36 69 c20 38 36 69 37 68 0 -1 17 -32 37 -69z m1665 -33 c18 -48 31
-89 29 -92 -3 -2 -19 37 -37 87 -18 49 -37 90 -42 90 -5 0 -18 -5 -29 -10 -20
-11 -22 -10 -13 13 4 11 13 13 32 8 23 -6 32 -21 60 -96z m-24 -2 c14 -37 24
-69 21 -71 -4 -5 -32 59 -41 95 -6 23 -28 31 -39 14 -3 -5 4 -33 15 -62 22
-55 21 -95 0 -44 -14 32 -16 40 -18 68 -3 27 -20 20 -37 -17 -9 -19 -23 -37
-31 -40 -11 -4 -11 -11 -4 -31 14 -37 12 -53 -5 -31 -7 10 -18 15 -24 12 -5
-4 -3 7 5 24 9 16 12 35 8 42 -5 8 -10 6 -15 -8 -6 -16 -8 -16 -8 -2 -1 20 21
37 27 20 7 -23 38 6 50 47 11 36 23 46 59 50 6 0 23 -29 37 -66z m-125 53
c-11 -10 -141 -57 -145 -53 -3 3 19 14 48 25 29 10 60 22 68 25 18 7 35 8 29
3z m21 -22 c0 -3 -5 -14 -10 -25 -9 -15 -18 -18 -48 -14 -23 2 -46 -2 -60 -11
-13 -9 -26 -13 -30 -10 -8 9 -3 11 63 39 61 26 85 32 85 21z m-137 -140 c32
-85 34 -89 63 -87 28 1 28 1 6 -10 -18 -8 -26 -7 -37 4 -12 12 -75 169 -75
186 0 16 13 -11 43 -93z m17 55 c-11 -8 -10 -9 8 -4 15 4 22 2 22 -8 0 -18
-32 -17 -44 2 -5 8 -3 16 5 22 19 11 27 0 9 -12z m147 -24 c2 -42 -4 -45 -18
-8 -7 20 -6 28 3 35 7 4 13 8 13 8 0 0 1 -16 2 -35z m-1639 -7 c-3 -32 -2 -33
42 -39 l45 -6 -40 -1 c-46 -2 -65 11 -65 44 0 15 -7 24 -22 27 -17 3 -14 5 10
6 30 1 32 -1 30 -31z m62 7 c0 -20 -5 -25 -25 -25 -19 0 -25 5 -25 22 0 21 0
21 15 2 14 -19 15 -19 21 4 8 29 14 28 14 -3z m53 18 c-14 -3 -23 -13 -26 -31
-4 -24 -4 -24 -6 6 -1 29 2 32 27 31 22 -1 23 -2 5 -6z m1420 -34 c-6 -6 -21
-9 -34 -6 -22 4 -22 4 4 6 15 0 27 6 27 13 0 6 3 8 7 5 4 -4 2 -12 -4 -18z
m217 2 c0 -8 -85 -46 -105 -46 -5 0 -12 -3 -15 -6 -9 -11 -111 -41 -117 -35
-3 3 0 8 8 11 8 3 59 23 114 44 111 44 115 45 115 32z m-215 -41 c0 -8 -9 -16
-20 -18 -20 -4 -20 -4 0 13 20 16 20 16 -4 9 -16 -4 -21 -3 -16 5 9 16 40 9
40 -9z m208 4 c-17 -7 -34 -18 -38 -24 -9 -14 -28 -13 -23 2 2 6 20 17 39 24
46 17 62 16 22 -2z m-1193 -33 c-15 -29 -12 -39 6 -16 15 19 16 19 12 1 -1
-11 -9 -21 -15 -24 -18 -5 -27 26 -13 43 17 21 23 19 10 -4z m617 -17 c71 -38
94 -54 78 -54 -6 0 -41 18 -80 40 l-70 39 -77 -41 c-42 -23 -75 -44 -73 -47 2
-3 37 -24 77 -45 l74 -39 63 36 62 37 -3 -47 c-3 -46 -5 -49 -62 -87 l-59 -40
-54 29 c-29 16 -53 33 -53 38 0 5 23 -4 51 -20 l52 -29 48 25 c34 18 49 32 49
47 0 11 5 25 12 32 18 18 1 27 -19 10 -10 -8 -34 -24 -54 -35 l-37 -21 -43 26
c-66 38 -120 83 -113 93 5 9 144 89 156 89 3 0 37 -16 75 -36z m999 2 c14 -20
14 -20 28 0 12 15 18 17 33 8 10 -6 18 -18 18 -26 0 -9 5 -22 11 -29 22 -27
26 -62 14 -100 -7 -21 -17 -36 -22 -33 -4 3 -1 15 7 27 22 31 19 64 -9 92 -17
17 -21 26 -12 35 8 8 7 13 -4 20 -23 15 -30 12 -30 -10 0 -28 -28 -25 -42 5
-8 18 -16 24 -27 19 -9 -4 -34 -7 -56 -6 -37 1 -42 -2 -62 -39 -16 -29 -18
-39 -8 -35 8 3 17 1 20 -4 3 -5 21 0 40 11 19 11 38 18 44 15 5 -3 14 1 21 9
8 9 8 15 2 15 -6 0 -13 -6 -15 -12 -3 -8 -6 -7 -6 4 -1 24 18 33 34 17 12 -12
10 -19 -12 -43 -17 -20 -27 -25 -32 -17 -10 15 -51 -20 -51 -43 0 -10 -4 -14
-10 -11 -5 3 -10 2 -10 -4 0 -24 26 -15 36 12 6 17 17 33 25 36 12 3 12 1 -1
-14 -14 -17 -13 -18 4 -12 15 6 18 3 14 -18 -3 -16 -1 -25 7 -25 7 0 18 -7 25
-15 8 -9 9 -15 2 -15 -6 0 -14 5 -17 10 -3 6 -12 10 -18 10 -7 0 -6 -4 3 -10
10 -6 11 -10 3 -10 -7 0 -13 -7 -13 -15 0 -8 -7 -15 -16 -15 -8 0 -12 -4 -9
-10 11 -18 33 -11 39 13 4 17 13 22 43 24 20 1 47 4 60 8 44 11 23 -11 -47
-49 -39 -21 -76 -36 -83 -33 -7 3 -32 45 -57 94 -25 48 -46 90 -47 92 -2 2 -6
2 -9 -1 -3 -4 20 -54 51 -112 54 -101 57 -105 78 -92 67 41 155 83 151 73 -2
-7 -41 -31 -87 -54 -98 -50 -90 -54 -163 84 l-48 92 27 29 c15 15 27 33 27 39
0 25 28 38 84 38 45 0 61 -4 72 -19z m-1637 -35 c24 -47 44 -56 67 -30 9 10
22 19 28 19 6 0 -2 -10 -18 -23 -30 -24 -31 -30 -11 -122 5 -25 3 -22 -14 12
-11 23 -17 51 -14 62 3 14 0 23 -11 27 -9 4 -26 24 -37 45 -22 44 -49 52 -49
15 0 -33 -33 -71 -91 -102 -57 -32 -72 -63 -43 -95 10 -11 26 -18 35 -16 10 3
23 -6 34 -25 9 -16 19 -27 22 -24 3 3 -2 17 -11 30 -10 17 -12 27 -5 31 12 8
11 9 28 -30 9 -20 9 -31 2 -33 -20 -7 -11 -24 9 -19 11 3 18 1 14 -4 -11 -18
-34 -8 -60 26 -14 19 -35 35 -45 35 -21 0 -49 36 -49 65 1 29 19 49 67 73 45
23 83 65 83 92 0 46 44 40 69 -9z m1081 30 c0 -5 -6 -11 -12 -14 -7 -2 -10 -7
-7 -11 3 -4 28 3 54 14 27 11 53 19 59 17 9 -3 -93 -47 -109 -47 -2 0 -9 10
-16 21 -8 15 -8 19 0 15 6 -4 11 -2 11 3 0 6 5 11 10 11 6 0 10 -4 10 -9z
m455 -11 c4 -6 10 -8 15 -5 5 3 11 1 14 -3 6 -9 -59 -44 -67 -36 -6 6 16 54
25 54 4 0 10 -5 13 -10z m-1486 -192 c1 -4 -11 0 -26 8 -33 17 -85 11 -147
-17 -37 -16 -42 -17 -58 -2 -23 21 -23 28 2 53 27 27 36 25 50 -12 7 -18 14
-28 17 -21 2 7 -1 22 -7 33 -10 19 -7 26 28 56 22 18 43 46 47 61 7 26 11 22
51 -62 23 -49 43 -93 43 -97z m-849 137 c-30 -19 -59 -36 -65 -39 -5 -2 -1
-12 9 -22 17 -17 18 -17 13 -1 -6 15 3 22 18 15 2 -2 11 6 20 17 14 19 15 19
8 1 -4 -13 -3 -17 5 -12 7 4 12 2 12 -4 0 -7 -7 -10 -15 -6 -8 3 -15 0 -15 -7
0 -8 -4 -6 -10 3 -8 13 -10 13 -10 -2 0 -18 37 -44 55 -39 6 1 4 -3 -2 -10
-10 -10 -18 -8 -38 11 -14 13 -25 18 -25 12 0 -6 4 -14 10 -17 5 -3 15 -15 21
-27 8 -16 8 -19 -1 -13 -8 5 -11 3 -8 -6 3 -8 11 -13 17 -11 6 1 11 -3 11 -9
0 -12 64 23 94 52 19 18 19 19 -13 80 -18 34 -30 63 -27 66 9 9 67 -124 61
-140 -7 -17 -94 -77 -113 -77 -6 0 -31 21 -56 47 -35 38 -42 51 -35 65 5 10 7
18 5 18 -3 0 -10 -9 -16 -20 -9 -17 -4 -27 32 -66 26 -28 34 -43 22 -36 -27
14 -74 69 -74 86 0 24 39 64 93 95 71 42 85 39 17 -4z m2498 9 c48 -33 17
-114 -44 -114 -28 0 -56 33 -56 65 0 55 54 81 100 49z m-2445 -10 c-7 -3 -9
-12 -6 -20 5 -14 -8 -19 -20 -7 -9 8 12 33 27 32 7 0 7 -2 -1 -5z m851 -8 c-6
-15 -34 -31 -34 -19 0 5 30 32 37 33 1 0 0 -6 -3 -14z m-816 -56 c8 -21 8 -32
0 -36 -7 -4 -8 -2 -4 5 6 8 1 10 -17 6 -33 -9 -44 19 -14 40 27 19 23 20 35
-15z m842 -39 c0 -5 -9 -7 -20 -4 -27 7 -25 -5 3 -17 22 -10 22 -10 -3 -7 -35
3 -40 37 -6 37 14 0 26 -4 26 -9z m-880 -20 c0 -13 -26 -32 -33 -24 -8 7 11
33 24 33 5 0 9 -4 9 -9z m783 -23 c15 -7 27 -17 27 -22 0 -4 -8 -5 -17 0 -10
4 -38 8 -63 8 -44 1 -45 0 -42 -29 2 -22 0 -26 -7 -15 -5 9 -11 22 -13 30 -2
8 -7 19 -13 23 -6 5 -3 7 8 3 9 -3 17 -1 17 4 0 14 71 12 103 -2z m-471 -175
c15 -13 18 -32 18 -117 0 -56 3 -118 6 -138 6 -35 9 -38 41 -38 19 0 42 -4 52
-10 16 -8 19 -4 25 28 11 74 85 142 152 142 67 0 122 -37 157 -105 14 -28 16
-28 23 -10 12 35 54 85 84 100 63 33 134 15 192 -48 l39 -41 -7 42 c-5 33 -3
47 11 62 22 24 62 26 87 3 17 -15 19 -15 36 0 10 10 35 17 55 17 l37 0 0 55
c0 60 13 75 66 75 57 0 64 -19 64 -171 l0 -137 55 -4 55 -3 0 79 c0 60 4 84
17 98 18 20 63 24 81 6 9 -9 15 -9 24 0 22 22 65 14 90 -17 l24 -28 13 28 c10
23 19 29 45 29 18 0 37 -5 44 -12 9 -9 15 -9 24 0 16 16 50 15 73 -2 17 -12
22 -12 39 0 27 19 80 18 96 -1 11 -14 15 -14 32 2 33 29 100 24 137 -11 40
-38 48 -74 23 -99 -20 -19 -20 -20 -1 -51 33 -54 19 -110 -37 -147 -16 -10
-41 -19 -56 -19 -33 0 -78 19 -78 33 0 6 -9 1 -20 -11 -26 -27 -64 -28 -90 -2
l-20 20 -31 -22 c-28 -21 -32 -21 -57 -7 -24 13 -30 13 -53 0 -24 -14 -29 -13
-54 3 -15 10 -30 27 -33 38 -4 18 -6 17 -18 -10 -15 -37 -47 -49 -77 -29 -18
12 -24 12 -46 -1 -21 -11 -32 -12 -56 -2 -35 14 -255 14 -270 -1 -18 -18 -83
-10 -99 12 l-14 21 -11 -20 c-26 -48 -93 -30 -104 27 l-6 31 -45 -45 c-25 -25
-53 -45 -63 -46 -60 -3 -97 1 -119 16 -35 23 -84 94 -85 124 -1 23 -2 23 -9
-7 -11 -47 -50 -100 -87 -117 -17 -8 -54 -15 -83 -15 -47 0 -56 4 -91 39 l-39
38 -15 -23 c-15 -23 -21 -24 -117 -24 -145 0 -138 -11 -138 218 0 159 2 188
17 204 20 22 70 23 95 1z m1878 -517 c0 -2 -15 -6 -34 -8 -19 -2 -32 0 -30 4
5 8 64 12 64 4z m-803 -12 c-3 -3 -12 -4 -19 -1 -8 3 -5 6 6 6 11 1 17 -2 13
-5z m792 -41 c-10 -20 -23 -41 -29 -47 -16 -16 -12 7 6 32 9 13 13 26 10 29
-8 8 -32 -23 -51 -66 -9 -19 -18 -32 -21 -28 -3 3 -1 14 5 25 13 24 6 32 -33
34 -21 1 -15 3 18 7 29 4 51 12 54 20 3 8 0 11 -7 7 -6 -4 -11 -3 -11 3 0 5
17 12 38 14 20 2 38 4 38 5 1 1 -7 -15 -17 -35z m-751 -6 c15 -2 -11 -4 -58
-4 -51 1 -64 2 -32 4 40 3 52 8 53 21 1 16 2 16 6 0 2 -9 16 -19 31 -21z
m-243 -2 c-22 -8 -51 -27 -63 -42 -20 -23 -22 -24 -12 -5 14 28 67 62 95 62
11 -1 3 -7 -20 -15z m400 1 c31 -13 74 -61 63 -71 -3 -3 -11 6 -18 20 -22 41
-130 77 -130 43 0 -6 -3 -9 -6 -5 -11 11 7 27 32 27 14 0 40 -6 59 -14z m673
-34 c29 -52 22 -56 -9 -4 -12 20 -24 39 -25 41 -2 2 -10 -2 -19 -9 -13 -11
-14 -10 -9 4 11 27 37 14 62 -32z m-784 -29 c-7 -37 4 -63 17 -42 6 10 9 11 9
2 0 -7 7 -13 15 -13 21 0 19 28 -2 33 -10 2 0 4 23 4 36 -1 40 -4 36 -21 -4
-16 -1 -18 19 -13 23 6 23 5 5 -8 -14 -11 -23 -12 -33 -4 -18 15 -43 -6 -43
-35 0 -12 -6 -31 -14 -41 -11 -16 -10 -23 10 -54 45 -70 56 -82 80 -91 31 -12
51 -4 69 29 8 14 14 20 15 13 0 -18 -45 -62 -64 -62 -35 0 -67 26 -93 77 -16
31 -37 56 -48 59 -11 3 -65 4 -120 2 l-100 -3 -20 -41 c-27 -56 -51 -82 -85
-89 -37 -8 -64 7 -80 44 -10 25 -9 43 6 105 10 42 20 74 22 71 2 -2 -3 -35
-13 -74 -19 -78 -15 -104 21 -128 36 -23 66 -6 109 62 34 53 35 56 20 84 -8
17 -15 39 -15 49 0 22 -23 46 -33 35 -13 -13 -7 -33 11 -34 11 0 12 -2 4 -6
-7 -3 -25 7 -39 21 -15 15 -19 24 -10 20 26 -9 38 4 25 26 -10 15 -10 22 -1
31 9 9 11 7 7 -8 -6 -22 11 -40 21 -23 3 5 16 10 28 9 22 -1 22 -1 -1 -7 -13
-4 -24 -11 -25 -17 -3 -15 35 -18 45 -3 7 9 8 8 5 -7 -2 -11 -8 -19 -13 -18
-18 3 -8 -59 11 -74 25 -18 39 -16 60 7 23 25 13 68 -18 75 -18 5 -23 14 -25
50 -1 24 2 46 8 50 6 4 10 -11 10 -39 l0 -46 85 0 85 0 0 53 c0 37 3 48 10 37
5 -8 7 -29 4 -47z m-284 31 c-19 -8 -44 -23 -55 -32 l-20 -17 20 24 c21 24 49
40 75 40 8 0 -1 -7 -20 -15z m416 -15 c13 -13 24 -27 24 -33 0 -5 -13 3 -29
18 -16 16 -44 32 -63 37 -33 9 -33 9 6 4 21 -2 49 -14 62 -26z m-105 -12 c-10
-9 -11 -8 -5 6 3 10 9 15 12 12 3 -3 0 -11 -7 -18z m568 -6 c-8 -23 -6 -35 10
-62 12 -19 21 -38 21 -44 0 -5 -12 10 -25 34 -15 26 -23 52 -20 62 4 11 2 19
-5 19 -6 0 -8 5 -5 10 3 6 12 10 20 10 11 0 12 -6 4 -29z m-1328 -110 c49 -47
89 -90 89 -95 0 -9 -70 54 -140 125 -28 28 -58 48 -77 52 -30 6 -33 4 -33 -19
0 -35 17 -64 38 -64 9 0 53 -32 97 -70 76 -67 80 -69 99 -52 14 13 18 13 14 3
-10 -32 -36 -36 -68 -13 -19 15 -30 18 -30 10 0 -7 -9 2 -20 20 -27 43 -61 59
-96 43 -24 -11 -30 -9 -56 15 -24 24 -32 26 -54 18 -15 -5 -35 -25 -45 -44
-16 -30 -19 -31 -19 -12 0 32 43 72 76 72 15 0 38 -10 51 -22 19 -18 27 -20
55 -11 l33 10 -33 13 c-37 14 -52 36 -52 78 0 38 7 43 47 36 25 -5 59 -31 124
-93z m1374 79 c-3 -5 -12 -10 -18 -10 -7 0 -6 4 3 10 19 12 23 12 15 0z m157
-2 c-6 -7 -32 -24 -59 -38 -26 -14 -50 -28 -53 -31 -3 -4 -16 -10 -30 -14 -36
-11 -24 -2 65 49 87 50 93 52 77 34z m-1618 -29 c11 -10 -11 -39 -30 -39 -14
0 -34 30 -34 50 0 11 48 3 64 -11z m1021 -101 l5 -43 -13 50 c-8 28 -17 61
-20 75 -5 17 -2 15 8 -7 8 -17 17 -51 20 -75z m-367 64 c4 -28 -24 -40 -45
-19 -21 21 -9 49 19 45 15 -2 24 -11 26 -26z m-181 -4 c-3 -8 -6 -5 -6 6 -1
11 2 17 5 13 3 -3 4 -12 1 -19z m530 -132 c-5 -14 -24 55 -32 114 -4 34 -1 28
15 -29 12 -40 19 -79 17 -85z m-913 85 c60 -50 82 -81 56 -81 -17 0 -106 86
-102 98 2 7 -2 10 -12 6 -12 -5 -15 -2 -10 10 5 12 2 15 -12 9 -12 -4 -15 -3
-10 6 11 16 15 14 90 -48z m-801 29 c-24 -11 -43 -22 -43 -26 0 -3 8 -19 17
-35 l17 -28 28 49 c16 28 35 50 42 50 16 0 76 -47 76 -60 0 -5 -13 5 -29 21
-37 37 -52 36 -73 -1 l-17 -30 44 2 c25 0 48 -2 52 -5 3 -4 -6 -7 -20 -7 -33
0 -33 0 -2 -46 30 -44 30 -49 5 -74 -22 -22 -87 -27 -120 -10 -43 23 -73 104
-51 139 6 10 8 0 4 -27 l-6 -42 41 0 41 0 -31 50 c-33 53 -30 72 17 90 41 17
48 8 8 -10z m1167 -71 c-7 -27 -15 -48 -18 -45 -3 3 1 31 8 63 8 31 16 51 18
44 2 -6 -2 -34 -8 -62z m-553 21 c20 -15 34 -18 65 -14 32 6 43 3 63 -16 46
-43 26 -143 -35 -175 -44 -23 -75 -18 -116 17 -64 56 -90 140 -58 186 19 27
48 28 81 2z m950 -60 c13 -25 34 -53 46 -63 l22 -18 -27 12 c-17 8 -34 27 -45
54 l-17 42 -75 7 c-128 11 -139 9 -155 -21 -18 -33 -21 -25 -4 12 11 26 12 26
121 23 l110 -3 24 -45z m-1427 -27 c-11 -17 -11 -17 -6 0 3 10 7 31 7 45 l2
27 4 -27 c2 -15 -1 -35 -7 -45z m1064 17 c7 0 22 9 34 20 12 12 22 16 22 11 0
-13 -49 -51 -66 -51 -10 0 -14 12 -13 38 2 30 3 32 6 10 2 -16 10 -28 17 -28z
m486 10 c0 -38 -19 -39 -57 -4 -25 22 -25 24 -3 10 33 -22 50 -20 50 4 0 11 2
20 5 20 3 0 5 -13 5 -30z m-1157 -76 c26 -51 83 -94 123 -94 64 0 102 30 125
99 8 22 8 20 4 -8 -16 -107 -126 -143 -211 -69 -40 35 -74 96 -73 130 1 22 1
22 8 -2 5 -14 15 -39 24 -56z m757 36 c-11 -21 -48 -45 -57 -37 -2 3 5 8 16
12 12 3 26 15 31 26 6 10 13 19 16 19 2 0 0 -9 -6 -20z m1156 -51 c3 -6 1 -38
-6 -70 -14 -66 -8 -88 12 -43 13 30 26 44 42 44 6 0 2 -6 -7 -12 -9 -7 -21
-25 -26 -40 -7 -18 -18 -28 -31 -28 -24 0 -24 -4 -3 70 13 48 14 63 4 73 -16
16 -24 2 -41 -69 -11 -46 -16 -54 -37 -54 -20 0 -22 4 -17 25 11 44 9 60 -5
60 -8 0 -19 -15 -23 -32 -7 -27 -14 -33 -34 -33 -17 0 -28 -7 -31 -20 -6 -21
-7 -21 -97 2 -41 10 -51 7 -43 -15 3 -8 33 -20 66 -27 55 -12 61 -15 55 -34
-9 -28 -6 -27 -40 -17 l-29 9 30 1 c29 2 29 2 11 16 -11 8 -32 15 -46 15 -35
0 -63 22 -58 46 4 20 22 22 91 9 29 -6 41 -4 50 8 7 8 21 17 32 19 11 2 25 14
31 26 19 39 31 47 49 32 11 -9 14 -22 10 -42 -4 -16 -2 -28 4 -28 10 0 13 9
26 65 11 49 43 72 61 44z m-31 -69 c-20 -76 -19 -90 7 -90 12 0 19 -3 15 -6
-3 -3 -20 -3 -38 1 -17 4 -27 10 -22 14 6 3 13 20 17 36 17 72 28 107 31 103
2 -2 -2 -28 -10 -58z m175 30 c0 -5 -5 -9 -12 -7 -7 1 -19 -23 -28 -58 -13
-48 -21 -61 -39 -63 -21 -3 -22 -1 -15 35 9 51 14 54 14 9 0 -46 15 -39 25 10
10 57 23 84 40 84 8 0 15 -4 15 -10z m5 -75 c-17 -56 -17 -57 4 -71 12 -9 21
-23 21 -32 0 -10 13 -22 31 -29 24 -9 30 -17 27 -35 -3 -20 -8 -23 -43 -20
-36 2 -38 1 -22 -11 9 -8 35 -17 57 -21 21 -3 41 -10 44 -15 3 -5 -25 -1 -62
8 -56 15 -66 21 -64 37 5 27 7 28 42 16 26 -9 32 -9 37 4 7 19 -13 34 -45 34
-19 0 -21 4 -16 26 5 20 2 26 -16 31 -19 5 -21 10 -15 42 8 49 26 103 32 98 2
-3 -3 -30 -12 -62z m-269 20 c-6 -31 -4 -37 16 -45 18 -8 14 -8 -17 -4 -22 4
-44 7 -50 8 -5 0 -23 -50 -39 -112 -17 -63 -32 -108 -35 -100 -2 7 -9 16 -15
20 -7 5 -5 8 5 8 9 0 19 10 23 23 9 35 7 45 -11 50 -14 4 -13 5 4 6 16 1 23 9
28 34 13 67 26 87 51 81 20 -5 24 -1 29 30 4 20 9 36 12 36 3 0 2 -16 -1 -35z
m251 13 c-3 -8 -6 -5 -6 6 -1 11 2 17 5 13 3 -3 4 -12 1 -19z m-96 -56 c-10
-34 -9 -36 31 -46 26 -6 28 -3 43 41 9 28 13 35 11 18 -3 -16 -8 -38 -12 -48
-5 -13 -1 -20 15 -24 15 -4 21 -13 21 -32 0 -23 6 -29 38 -38 l37 -11 -42 5
-42 5 -7 -38 c-3 -22 -11 -46 -16 -54 -10 -16 -10 -17 14 88 14 63 13 63 -68
81 -40 9 -52 16 -46 24 5 7 12 25 16 41 4 15 9 26 11 24 3 -2 1 -19 -4 -36z
m-266 -23 c14 -6 9 -7 -15 -3 -19 4 -44 11 -55 15 -14 6 -9 7 15 3 19 -4 44
-11 55 -15z m209 -23 c76 -19 140 -36 142 -39 9 -8 -71 -297 -81 -293 -6 2
-71 18 -145 37 -74 18 -136 34 -138 35 -5 3 71 294 78 294 3 0 68 -15 144 -34z
m-1091 17 c-7 -2 -19 -2 -25 0 -7 3 -2 5 12 5 14 0 19 -2 13 -5z m-50 -19 c-5
-14 -3 -15 15 -5 17 9 27 9 44 0 36 -19 -3 -33 -52 -18 -36 11 -38 13 -22 25
22 17 23 17 15 -2z m101 -13 c-2 -3 -12 3 -22 13 -16 17 -16 18 5 5 12 -7 20
-15 17 -18z m-921 5 c58 -21 105 -63 133 -119 23 -45 26 -60 22 -125 -6 -88
-37 -140 -112 -186 -157 -97 -357 18 -356 206 1 163 161 278 313 224z m736
-25 c-12 -16 -18 -34 -14 -40 9 -15 28 -3 21 14 -6 17 13 35 37 35 13 0 17 -5
13 -16 -3 -9 -6 -20 -6 -25 0 -5 -6 -9 -14 -9 -8 0 -28 -12 -45 -26 -17 -14
-31 -21 -31 -15 0 5 5 13 11 16 6 4 8 14 5 22 -6 16 10 53 28 65 18 13 18 9
-5 -21z m258 -1 c2 -22 2 -22 -6 -5 -4 11 -19 23 -32 27 -21 6 -21 7 6 5 24
-2 30 -7 32 -27z m-31 -4 c15 -16 19 -46 6 -46 -5 0 -17 7 -28 16 -18 14 -18
15 4 4 12 -6 22 -7 22 -2 0 15 -28 34 -40 27 -5 -3 -10 -1 -10 4 0 16 29 13
46 -3z m-118 -10 c24 -13 24 -13 -7 -13 -19 0 -31 5 -31 14 0 16 8 16 38 -1z
m66 -1 c3 -9 0 -15 -9 -15 -16 0 -27 14 -18 24 10 10 21 7 27 -9z m803 -1 c-3
-3 -12 -4 -19 -1 -8 3 -5 6 6 6 11 1 17 -2 13 -5z m25 -51 c-3 -17 -9 -22 -21
-18 -9 4 -28 9 -43 12 -16 3 -28 9 -28 14 0 4 15 3 32 -2 41 -11 48 -11 48 1
0 6 -6 10 -13 10 -7 0 -22 6 -33 14 -17 13 -14 13 22 4 35 -10 40 -14 36 -35z
m-847 17 c3 -5 11 -10 16 -10 6 0 7 5 3 12 -4 6 -3 8 3 5 7 -5 7 -17 -1 -41
-25 -73 -64 -87 -96 -33 -17 27 -20 29 -20 11 0 -12 7 -27 15 -34 19 -16 19
-27 1 -27 -8 0 -12 6 -9 13 2 6 0 15 -6 19 -18 11 -12 47 11 72 22 24 72 31
83 13z m115 -15 c14 -19 14 -19 -2 -6 -10 7 -18 18 -18 24 0 6 1 8 3 6 1 -2 9
-13 17 -24z m-234 -23 c-4 -3 -12 0 -19 7 -9 9 -9 14 3 21 11 7 16 5 18 -6 2
-9 1 -18 -2 -22z m192 16 c-5 -15 -23 -11 -26 6 -2 11 2 14 13 10 9 -4 14 -11
13 -16z m672 18 c0 -2 -11 -6 -25 -8 -13 -3 -22 -1 -19 3 5 9 44 13 44 5z
m-640 -50 c0 -31 -11 -39 -25 -19 -9 13 -10 22 -2 34 14 22 27 15 27 -15z
m-233 -11 c12 -19 18 -37 12 -40 -15 -10 -29 4 -22 23 6 14 4 15 -9 4 -10 -8
-19 -9 -22 -3 -3 5 0 12 6 15 11 5 11 7 0 12 -12 6 -7 24 6 24 4 -1 17 -16 29
-35z m137 -46 c-26 -27 -22 -43 4 -17 8 8 12 8 12 1 0 -11 -29 -39 -33 -32 -1
2 -9 13 -17 24 -8 11 -10 17 -5 12 15 -13 55 34 56 67 l2 31 4 -29 c3 -21 -3
-36 -23 -57z m819 20 c-3 -12 -14 -19 -27 -18 -17 1 -17 2 -3 6 31 8 18 19
-43 36 -33 10 -60 21 -60 26 0 5 31 0 69 -11 58 -17 68 -23 64 -39z m-56 55
c-3 -3 -12 -4 -19 -1 -8 3 -5 6 6 6 11 1 17 -2 13 -5z m40 -10 c-3 -3 -12 -4
-19 -1 -8 3 -5 6 6 6 11 1 17 -2 13 -5z m-743 -56 c-11 -17 -21 -6 -21 23 0
30 1 30 13 8 7 -13 10 -27 8 -31z m1183 26 c-3 -3 -12 -4 -19 -1 -8 3 -5 6 6
6 11 1 17 -2 13 -5z m-1418 -58 l-2 -31 -4 30 c-3 17 -10 37 -16 45 -10 13
-10 13 6 1 10 -8 16 -25 16 -45z m279 28 c-7 -15 -14 -21 -16 -15 -2 7 2 18 8
26 18 22 21 18 8 -11z m1212 16 c20 -6 21 -8 5 -8 -11 0 -31 4 -45 8 -20 6
-21 8 -5 8 11 0 31 -4 45 -8z m-563 -7 c-28 -7 -16 -37 18 -43 26 -5 30 -10
27 -33 -2 -19 2 -27 13 -27 25 0 27 -23 10 -85 -21 -71 -30 -67 -11 4 13 49
12 54 -5 69 -11 9 -19 24 -19 33 0 10 -13 21 -30 28 -41 14 -42 63 -1 60 12
-1 12 -2 -2 -6z m528 -7 c45 -11 62 -12 67 -3 6 9 8 9 8 -1 0 -22 -29 -25 -85
-9 -47 13 -55 13 -55 1 0 -8 8 -14 19 -14 24 0 45 -25 37 -46 -5 -13 -15 -15
-42 -11 -49 8 -40 -15 10 -25 52 -11 76 -26 75 -46 -1 -15 -2 -15 -6 0 -3 10
-27 22 -67 33 -54 15 -63 20 -58 37 4 17 10 18 44 13 35 -6 39 -5 36 11 -2 10
-16 21 -35 26 -25 6 -30 12 -26 28 6 24 2 23 78 6z m-450 -35 c-5 -33 -3 -41
14 -50 11 -6 30 -11 43 -12 l23 -1 -24 -7 c-19 -5 -28 -18 -38 -56 -7 -28 -12
-57 -12 -65 1 -22 27 51 28 77 1 26 13 35 35 27 12 -5 15 -15 10 -45 -5 -32
-4 -39 9 -39 10 0 18 13 23 35 6 35 18 42 41 27 9 -6 9 -21 -3 -67 -26 -99
-30 -84 -9 30 5 27 4 28 -7 12 -7 -10 -18 -26 -24 -34 -19 -27 -44 -8 -44 32
0 52 -13 43 -33 -25 -15 -51 -21 -60 -40 -59 -16 1 -17 3 -5 6 9 2 15 10 12
17 -3 8 2 40 10 72 15 58 11 73 -19 74 -5 0 -10 14 -10 30 0 17 3 30 8 30 4 0
7 7 7 15 0 8 3 15 6 15 3 0 3 -18 -1 -39z m-771 -28 c-22 -16 -34 -17 -34 -1
0 6 3 8 7 5 7 -8 33 11 33 25 0 5 -9 4 -20 -2 -11 -6 -20 -7 -20 -3 0 5 10 13
23 18 18 8 23 7 25 -9 2 -11 -4 -26 -14 -33z m721 47 c13 -6 15 -9 5 -9 -8 0
-22 4 -30 9 -18 12 -2 12 25 0z m433 -29 c27 -11 27 -11 -4 -5 -29 5 -32 2
-38 -27 -4 -22 -2 -35 6 -41 10 -6 9 -8 -3 -8 -9 0 -19 -9 -22 -20 -3 -13 -14
-20 -30 -20 -14 0 -27 -6 -29 -12 -3 -7 -7 -2 -10 10 -6 21 -4 22 26 16 l33
-6 19 79 c10 43 20 70 22 61 2 -9 15 -21 30 -27z m-1334 13 c18 -17 20 -30 7
-38 -12 -8 -41 3 -41 15 0 4 7 6 15 3 21 -8 19 13 -2 25 -10 6 -13 11 -6 11 6
0 19 -7 27 -16z m75 -21 c32 -18 36 -34 10 -41 -11 -3 -11 -2 1 7 12 9 11 11
-8 11 -15 0 -21 -4 -16 -12 4 -7 3 -8 -5 -4 -9 6 -9 11 0 23 11 12 10 14 -6
11 -10 -1 -20 3 -22 10 -6 17 10 15 46 -5z m141 -2 c0 -19 -32 -41 -61 -41
-16 0 -29 4 -29 8 0 5 13 7 29 4 22 -3 33 1 43 17 14 23 18 26 18 12z m-165
-47 c15 -9 33 -13 47 -9 18 5 20 4 8 -4 -21 -15 -45 -13 -60 3 -6 8 -28 17
-48 19 l-37 4 33 1 c18 1 44 -5 57 -14z m1070 -24 c40 -11 59 -19 43 -19 -17
-1 -28 -8 -31 -18 -4 -14 -5 -13 -6 3 -1 22 -19 34 -51 34 -13 0 -20 -10 -25
-36 -3 -20 -9 -34 -11 -31 -3 3 -1 21 4 41 7 25 7 36 -1 40 -28 11 14 4 78
-14z m222 -6 c-3 -3 -12 -4 -19 -1 -8 3 -5 6 6 6 11 1 17 -2 13 -5z m26 -26
c26 -6 47 -15 47 -20 0 -10 5 -11 -60 7 -53 14 -56 14 -69 -5 -7 -11 -22 -20
-33 -20 -12 0 -23 -11 -29 -30 -8 -21 -17 -30 -32 -29 l-22 0 22 9 c12 5 24
21 28 40 5 24 11 30 28 28 15 -2 25 4 32 20 6 14 15 20 25 16 8 -3 36 -10 63
-16z m14 16 c-3 -3 -12 -4 -19 -1 -8 3 -5 6 6 6 11 1 17 -2 13 -5z m-201 -22
c6 -4 7 -17 3 -32 -7 -24 -7 -24 -8 -2 -2 39 -19 24 -32 -28 -7 -28 -20 -56
-29 -63 -13 -10 -13 -10 -4 3 7 8 17 41 24 73 13 55 22 65 46 49z m-66 -72
c-6 -23 -13 -40 -15 -38 -2 2 1 23 7 46 6 24 13 41 15 38 2 -2 -1 -23 -7 -46z
m87 18 c-3 -8 -6 -5 -6 6 -1 11 2 17 5 13 3 -3 4 -12 1 -19z"/>
<path d="M500 2748 c0 -16 221 -238 237 -238 32 0 5 35 -106 139 -65 61 -121
111 -125 111 -3 0 -6 -5 -6 -12z"/>
<path d="M2750 2740 c0 -5 5 -10 10 -10 6 0 10 5 10 10 0 6 -4 10 -10 10 -5 0
-10 -4 -10 -10z"/>
<path d="M1053 2355 c-23 -18 -48 -35 -55 -38 -7 -2 -10 -7 -6 -11 8 -10 118
62 118 78 0 12 -15 4 -57 -29z"/>
<path d="M1995 2290 c-3 -5 -2 -10 4 -10 5 0 13 5 16 10 3 6 2 10 -4 10 -5 0
-13 -4 -16 -10z"/>
<path d="M2442 2008 c5 -15 28 -23 28 -10 0 5 -7 13 -16 16 -10 4 -14 1 -12
-6z"/>
<path d="M2512 1968 c-7 -7 -12 -18 -12 -25 0 -7 -5 -13 -12 -13 -9 0 -9 -3
-1 -11 16 -16 30 -4 35 31 3 16 4 30 3 30 0 0 -6 -5 -13 -12z"/>
<path d="M2550 1885 c0 -19 11 -19 36 0 18 14 18 14 -8 15 -18 0 -28 -5 -28
-15z"/>
<path d="M887 1994 c-46 -53 -44 -80 4 -70 18 3 42 6 55 6 15 0 24 6 24 15 0
14 -37 96 -43 95 -1 -1 -19 -21 -40 -46z"/>
<path d="M790 1925 c-14 -16 -5 -35 16 -35 15 0 20 35 5 44 -5 3 -14 -1 -21
-9z"/>
<path d="M87 1957 c-5 -14 11 -34 41 -51 19 -11 14 6 -12 37 -18 23 -24 25
-29 14z"/>
<path d="M2592 2034 c-30 -20 -29 -59 2 -79 47 -31 93 22 62 70 -19 29 -33 31
-64 9z m15 -22 c-20 -21 -7 -48 18 -38 13 5 15 13 10 34 -6 26 -6 26 12 9 14
-13 15 -21 7 -35 -14 -22 -54 -22 -67 0 -11 17 5 48 26 48 5 0 3 -8 -6 -18z
m23 -16 c0 -3 -4 -8 -10 -11 -5 -3 -10 -1 -10 4 0 6 5 11 10 11 6 0 10 -2 10
-4z"/>
<path d="M211 1971 c-9 -6 -10 -11 -2 -15 13 -8 31 1 31 15 0 11 -11 11 -29 0z"/>
<path d="M440 1510 l0 -190 105 0 105 0 0 35 0 35 -70 0 -70 0 0 155 0 155
-35 0 -35 0 0 -190z"/>
<path d="M1555 1510 l0 -190 107 0 106 0 0 36 0 36 -69 -4 -69 -3 0 158 0 157
-37 0 -38 0 0 -190z"/>
<path d="M2292 1580 c-28 -4 -39 -15 -68 -65 l-35 -60 3 63 c3 62 3 62 -24 62
l-28 0 0 -135 0 -135 28 0 c26 0 27 2 24 38 -2 25 1 42 10 50 12 10 19 3 38
-38 21 -46 26 -50 58 -50 l34 0 -41 76 -41 75 41 60 c22 33 39 62 37 63 -1 1
-18 -1 -36 -4z"/>
<path d="M2393 1575 c-66 -29 -56 -105 19 -145 50 -26 61 -40 51 -66 -9 -23
-57 -14 -61 12 -2 16 -10 21 -32 21 -34 0 -36 -6 -15 -46 17 -34 63 -53 106
-44 64 13 81 93 28 137 -17 14 -36 26 -43 26 -7 0 -21 9 -31 20 -15 16 -15 22
-5 35 18 21 41 19 47 -5 4 -14 14 -20 34 -20 36 0 39 27 7 58 -31 28 -67 34
-105 17z"/>
<path d="M1800 1445 l0 -135 30 0 30 0 0 135 0 135 -30 0 -30 0 0 -135z"/>
<path d="M1900 1446 l0 -136 31 0 30 0 -3 85 c-2 47 -1 85 2 85 3 0 21 -37 40
-83 32 -74 38 -82 65 -85 l30 -3 0 136 0 135 -27 0 -27 0 -3 -87 -3 -88 -36
85 c-33 79 -38 85 -67 88 l-32 3 0 -135z"/>
<path d="M1330 1435 l0 -135 30 0 c28 0 30 3 30 38 0 35 14 72 23 62 2 -3 13
-26 25 -51 17 -41 24 -47 56 -51 20 -2 35 -2 34 1 -2 4 -20 39 -41 80 l-39 74
41 58 40 59 -37 0 c-35 0 -39 -4 -69 -58 l-32 -57 -1 58 c0 57 0 57 -30 57
l-30 0 0 -135z"/>
<path d="M753 1530 c-110 -67 -64 -240 64 -240 107 0 169 90 124 183 -36 74
-119 99 -188 57z m122 -55 c70 -69 -25 -177 -100 -113 -38 34 -39 82 -1 115
35 30 71 29 101 -2z"/>
<path d="M782 1464 c-30 -21 -28 -58 4 -83 33 -26 56 -27 77 -3 19 21 22 54 7
83 -13 23 -57 25 -88 3z m78 -19 c17 -20 5 -62 -21 -70 -37 -12 -79 52 -52 78
12 13 60 7 73 -8z"/>
<path d="M807 1443 c-15 -14 -7 -43 12 -43 23 0 34 23 18 39 -13 13 -21 14
-30 4z"/>
<path d="M1094 1541 c-11 -5 -33 -23 -47 -41 -22 -25 -27 -42 -27 -82 0 -45 4
-54 39 -89 35 -35 44 -39 91 -39 48 0 56 4 92 40 39 39 40 42 36 96 -6 75 -44
115 -115 120 -26 2 -57 0 -69 -5z m110 -72 c14 -17 26 -40 26 -51 0 -23 -52
-78 -74 -78 -45 0 -86 43 -86 90 0 24 55 70 85 70 14 0 34 -13 49 -31z"/>
<path d="M1101 1454 c-27 -34 -26 -40 4 -69 29 -30 58 -32 85 -5 24 24 25 48
4 78 -22 31 -67 29 -93 -4z m91 -19 c10 -22 9 -29 -9 -46 -37 -37 -98 5 -73
51 16 30 67 27 82 -5z"/>
<path d="M1127 1434 c-11 -11 5 -34 24 -34 12 0 19 7 19 20 0 19 -28 28 -43
14z"/>
<path d="M2297 1481 c-13 -22 -13 -29 -1 -45 7 -10 15 -24 17 -29 2 -7 10 -5
23 4 19 14 19 15 -2 55 l-21 42 -16 -27z"/>
<path d="M1496 1475 c-15 -23 -15 -27 3 -63 l20 -37 1 63 c0 34 -2 62 -4 62
-2 0 -11 -11 -20 -25z"/>
<path d="M1648 1009 c-33 -19 -10 -89 30 -89 17 0 42 30 42 50 0 21 -25 50
-43 50 -7 0 -20 -5 -29 -11z m56 -25 c7 -19 -10 -44 -29 -44 -19 0 -36 25 -29
44 3 9 16 16 29 16 13 0 26 -7 29 -16z"/>
<path d="M1660 976 c0 -21 21 -31 30 -15 5 7 6 17 4 21 -9 14 -34 9 -34 -6z"/>
<path d="M1550 995 c6 -7 4 -21 -5 -39 -20 -37 -20 -36 17 -36 29 0 30 1 14
13 -11 8 -16 20 -13 28 4 10 6 9 6 -3 1 -10 8 -18 16 -18 8 0 15 -4 15 -10 0
-5 7 -10 16 -10 12 0 15 6 10 23 -3 12 -6 31 -6 43 0 18 -6 21 -40 21 -29 0
-37 -3 -30 -12z m45 -15 c3 -5 1 -10 -4 -10 -6 0 -11 5 -11 10 0 6 2 10 4 10
3 0 8 -4 11 -10z"/>
<path d="M820 1000 c0 -6 7 -10 15 -10 8 0 15 2 15 4 0 2 -7 6 -15 10 -8 3
-15 1 -15 -4z"/>
<path d="M1474 979 c-3 -6 -2 -15 4 -21 13 -13 32 -2 32 18 0 16 -26 19 -36 3z"/>
<path d="M156 863 c-4 -9 0 -23 9 -32 13 -13 19 -13 35 -3 25 15 25 6 0 -36
-11 -18 -20 -35 -20 -37 0 -12 40 -3 60 13 l22 18 -29 47 c-29 49 -65 63 -77
30z"/>
<path d="M118 780 c18 -17 36 -30 40 -30 4 0 15 14 24 30 l17 30 -57 0 -57 -1
33 -29z"/>
<path d="M689 879 c-9 -17 -8 -25 5 -37 12 -13 18 -13 30 -2 21 16 20 46 0 54
-22 8 -22 8 -35 -15z m41 -14 c0 -8 -7 -15 -15 -15 -8 0 -15 7 -15 15 0 8 7
15 15 15 8 0 15 -7 15 -15z"/>
<path d="M750 871 c0 -11 -3 -26 -6 -35 -4 -11 -1 -16 10 -16 9 0 21 -11 28
-24 9 -21 16 -24 39 -19 24 4 30 1 40 -21 9 -20 15 -23 26 -15 7 6 13 23 13
36 0 21 -3 23 -14 14 -7 -6 -21 -9 -30 -5 -20 8 -32 52 -19 65 7 7 9 2 6 -15
-4 -18 0 -28 12 -32 21 -8 48 17 40 38 -7 17 -63 32 -87 23 -9 -4 -22 1 -31 9
-21 21 -27 20 -27 -3z m130 -36 c0 -8 -7 -15 -15 -15 -16 0 -20 12 -8 23 11
12 23 8 23 -8z"/>
<path d="M690 810 c0 -5 5 -10 10 -10 6 0 10 5 10 10 0 6 -4 10 -10 10 -5 0
-10 -4 -10 -10z"/>
<path d="M715 790 c-7 -23 10 -50 32 -50 8 0 12 -4 8 -9 -3 -6 4 -15 16 -22
21 -11 21 -10 6 11 -12 17 -13 27 -4 40 8 14 8 22 -2 34 -19 22 -48 20 -56 -4z
m41 -25 c-5 -14 -9 -15 -21 -5 -12 10 -13 16 -4 27 15 18 34 1 25 -22z"/>
<path d="M800 756 c-27 -33 18 -72 48 -42 13 13 14 20 6 34 -15 23 -38 26 -54
8z m43 -13 c9 -9 -13 -34 -24 -27 -14 8 -11 34 4 34 8 0 17 -3 20 -7z"/>
<path d="M2435 570 c-12 -20 -66 -242 -60 -249 11 -11 250 -69 257 -63 9 9 71
252 66 258 -5 5 -233 64 -247 64 -5 0 -13 -4 -16 -10z m50 -11 c17 -8 16 -8
-7 -4 -23 4 -27 1 -34 -28 -4 -17 -9 -27 -11 -21 -5 14 14 64 24 63 5 0 17 -5
28 -10z m52 -15 c-3 -3 -12 -4 -19 -1 -8 3 -5 6 6 6 11 1 17 -2 13 -5z m28
-26 c49 -12 91 -23 93 -24 2 -1 -5 -35 -16 -76 -11 -40 -23 -85 -26 -99 l-6
-27 -60 15 c-47 12 -60 20 -60 34 0 11 -7 19 -15 19 -18 0 -20 -16 -2 -24 6
-4 -3 -4 -22 -1 -19 3 -36 7 -38 8 -2 3 8 46 38 160 5 20 13 37 16 37 4 0 48
-10 98 -22z m40 12 c25 -11 -1 -11 -35 0 -20 6 -21 8 -5 8 11 0 29 -3 40 -8z
m52 -16 c-3 -3 -12 -4 -19 -1 -8 3 -5 6 6 6 11 1 17 -2 13 -5z m6 -104 c-14
-56 -27 -99 -29 -97 -6 6 40 197 47 197 4 0 -5 -45 -18 -100z m-236 58 c-3 -8
-6 -5 -6 6 -1 11 2 17 5 13 3 -3 4 -12 1 -19z m-10 -40 c-3 -8 -6 -5 -6 6 -1
11 2 17 5 13 3 -3 4 -12 1 -19z m-13 -57 c-6 -37 -5 -39 26 -46 17 -4 29 -9
26 -12 -2 -3 -20 0 -39 6 -34 12 -35 12 -25 51 13 51 20 52 12 1z m149 -77
c49 -13 62 -13 68 -2 7 10 9 8 9 -6 0 -15 -5 -17 -33 -12 -41 8 -125 34 -113
35 4 1 35 -6 69 -15z"/>
<path d="M2466 519 c-17 -57 -12 -75 14 -44 16 19 49 19 56 0 5 -12 10 -13 20
-4 10 8 22 8 45 0 40 -14 39 -14 39 3 0 9 -24 19 -67 29 -38 9 -76 19 -85 22
-11 4 -19 2 -22 -6z"/>
<path d="M2461 426 c-34 -57 -35 -91 -1 -61 20 18 40 13 40 -9 0 -18 93 -47
102 -33 4 6 3 16 -2 22 -11 14 0 66 13 58 6 -3 7 -1 3 5 -4 7 -2 12 3 12 22 0
10 31 -16 41 -28 11 -53 6 -53 -10 0 -6 13 -8 30 -4 26 5 29 3 23 -13 -4 -11
-8 -13 -11 -6 -8 24 -20 11 -27 -28 -7 -43 -18 -48 -49 -25 -11 8 -28 15 -38
15 -22 0 -22 9 0 38 17 21 18 22 18 3 0 -11 -4 -17 -8 -15 -4 3 -8 1 -8 -4 0
-6 7 -13 16 -16 14 -5 16 -1 11 34 -3 22 -1 40 4 40 5 0 9 -17 9 -37 0 -21 5
-45 10 -53 8 -12 10 -12 10 5 0 11 -3 37 -6 58 -9 53 -33 48 -73 -17z m126
-56 c-2 -43 -2 -43 -32 -30 -16 7 -17 9 -3 9 10 1 19 13 23 31 9 41 13 38 12
-10z"/>
<path d="M1465 550 c-3 -5 -1 -10 4 -10 6 0 11 5 11 10 0 6 -2 10 -4 10 -3 0
-8 -4 -11 -10z"/>
<path d="M481 550 c-131 -33 -211 -200 -150 -315 42 -80 102 -122 188 -132 55
-6 127 20 175 65 84 79 88 231 8 315 -55 58 -147 86 -221 67z m79 -89 c0 -13
-29 -41 -43 -41 -7 0 -13 -18 -14 -44 -2 -50 -32 -126 -50 -126 -23 0 -24 20
0 29 19 8 26 21 36 67 9 50 9 59 -4 67 -27 14 -17 29 15 22 26 -6 30 -4 30 14
0 12 6 21 15 21 8 0 15 -4 15 -9z m36 -24 c-4 -19 0 -26 19 -35 24 -11 36 -54
17 -66 -4 -2 -8 7 -7 21 0 14 -6 28 -13 30 -8 3 -10 -2 -6 -14 4 -11 3 -14 -3
-7 -9 12 -54 37 -57 32 -1 -2 -7 -14 -14 -28 l-12 -25 6 25 c3 14 17 34 30 45
13 12 24 26 24 33 0 7 5 12 11 12 7 0 9 -9 5 -23z m-8 -101 c-16 -11 -16 -14
-2 -28 17 -17 11 -58 -9 -58 -8 0 -8 3 1 12 20 20 14 37 -20 55 l-33 17 35 7
c19 3 37 7 40 7 3 1 -3 -4 -12 -12z m-73 -46 c-4 -12 -9 -19 -12 -17 -3 3 -2
15 2 27 4 12 9 19 12 17 3 -3 2 -15 -2 -27z m121 5 c4 -8 -1 -26 -10 -40 -12
-19 -25 -25 -51 -25 -28 0 -35 -4 -35 -20 0 -12 -7 -20 -16 -20 -15 0 -15 2
-2 23 10 13 30 24 53 28 42 7 58 25 44 51 -7 12 -6 18 1 18 6 0 13 -7 16 -15z
m-102 -46 c-18 -5 -34 -17 -37 -29 -3 -11 -11 -20 -17 -20 -7 0 -10 7 -6 16 3
9 6 20 6 25 0 6 4 8 9 4 5 -3 12 -1 16 5 3 5 18 10 33 9 26 -1 26 -1 -4 -10z"/>
<path d="M566 411 c-3 -5 3 -11 15 -14 16 -4 18 -3 8 9 -13 16 -16 17 -23 5z"/>
<path d="M1376 521 c-4 -7 -5 -15 -2 -18 9 -9 19 4 14 18 -4 11 -6 11 -12 0z"/>
<path d="M1445 450 c-17 -19 -17 -21 0 -40 23 -25 41 -25 55 -1 13 25 13 27
-6 45 -20 21 -27 20 -49 -4z"/>
<path d="M1591 424 c0 -11 3 -14 6 -6 3 7 2 16 -1 19 -3 4 -6 -2 -5 -13z"/>
</g>
</svg>
